<svg width="358" height="192" viewBox="0 0 358 192" fill="none" xmlns="http://www.w3.org/2000/svg">
<rect x="96.9062" y="143.686" width="47.9316" height="47.9316" rx="12.5102" transform="rotate(-180 96.9062 143.686)" fill="url(#paint0_linear_1_20)"/>
<rect x="48.9297" y="47.8223" width="47.9316" height="47.9316" rx="12.5102" transform="rotate(90 48.9297 47.8223)" fill="url(#paint1_linear_1_20)"/>
<rect x="1" width="47.9316" height="47.9316" rx="12.5102" fill="url(#paint2_linear_1_20)"/>
<rect x="96.9062" y="143.467" width="47.9316" height="47.9316" rx="12.5102" transform="rotate(90 96.9062 143.467)" fill="url(#paint3_linear_1_20)"/>
<rect x="254.586" y="143.467" width="47.9316" height="47.9316" rx="12.5102" transform="rotate(90 254.586 143.467)" fill="url(#paint4_linear_1_20)"/>
<rect x="357.344" y="96" width="47.9316" height="47.9316" rx="12.5102" transform="rotate(90 357.344 96)" fill="url(#paint5_linear_1_20)"/>
<rect x="96.6484" y="95.7539" width="47.9316" height="47.9316" rx="12.5102" fill="url(#paint6_linear_1_20)"/>
<rect x="261" y="47.8223" width="47.9316" height="47.9316" rx="12.5102" fill="url(#paint7_linear_1_20)"/>
<rect x="260.93" y="96" width="47.9316" height="47.9316" rx="12.5102" transform="rotate(90 260.93 96)" fill="url(#paint8_linear_1_20)"/>
<rect x="96.7578" y="47.8223" width="47.9316" height="47.9316" rx="12.5102" transform="rotate(90 96.7578 47.8223)" fill="url(#paint9_linear_1_20)"/>
<rect width="47.9316" height="47.9316" rx="12.5102" transform="matrix(-1.19249e-08 1 1 1.19249e-08 308.82 0)" fill="url(#paint10_linear_1_20)"/>
<rect x="1" y="143.467" width="47.9316" height="47.9316" rx="12.5102" fill="url(#paint11_linear_1_20)"/>
<path d="M64.7643 143.465C55.9878 143.465 48.8691 150.594 48.8236 159.407C48.778 150.596 41.6593 143.465 32.8828 143.465C41.6593 143.465 48.778 136.337 48.8236 127.526C48.8691 136.337 55.9878 143.465 64.7643 143.465Z" fill="white"/>
<path d="M112.585 95.6431C103.808 95.6431 96.6894 102.772 96.6439 111.585C96.5983 102.774 89.4797 95.6431 80.7031 95.6431C89.4797 95.6431 96.5983 88.5145 96.6439 79.7034C96.6894 88.5145 103.808 95.6431 112.585 95.6431Z" fill="white"/>
<path d="M324.764 47.8208C315.988 47.8208 308.869 54.9493 308.824 63.7627C308.778 54.9516 301.659 47.8208 292.883 47.8208C301.659 47.8208 308.778 40.6923 308.824 31.8812C308.869 40.6923 315.988 47.8208 324.764 47.8208Z" fill="white"/>
<path d="M276.882 95.9394C268.105 95.9394 260.986 103.068 260.941 111.881C260.895 103.07 253.777 95.9394 245 95.9394C253.777 95.9394 260.895 88.8109 260.941 79.9998C260.986 88.8109 268.105 95.9394 276.882 95.9394Z" fill="white"/>
<defs>
<linearGradient id="paint0_linear_1_20" x1="120.872" y1="143.686" x2="120.872" y2="191.617" gradientUnits="userSpaceOnUse">
<stop stop-color="#3C37FF"/>
<stop offset="1" stop-color="#FE66BA"/>
</linearGradient>
<linearGradient id="paint1_linear_1_20" x1="72.8955" y1="47.8223" x2="72.8955" y2="95.7539" gradientUnits="userSpaceOnUse">
<stop stop-color="#3C37FF"/>
<stop offset="1" stop-color="#FE66BA"/>
</linearGradient>
<linearGradient id="paint2_linear_1_20" x1="24.9658" y1="0" x2="24.9658" y2="47.9316" gradientUnits="userSpaceOnUse">
<stop stop-color="#3C37FF"/>
<stop offset="1" stop-color="#FE66BA"/>
</linearGradient>
<linearGradient id="paint3_linear_1_20" x1="120.872" y1="143.467" x2="120.872" y2="191.398" gradientUnits="userSpaceOnUse">
<stop stop-color="#3C37FF"/>
<stop offset="1" stop-color="#FE66BA"/>
</linearGradient>
<linearGradient id="paint4_linear_1_20" x1="278.552" y1="143.467" x2="278.552" y2="191.398" gradientUnits="userSpaceOnUse">
<stop stop-color="#3C37FF"/>
<stop offset="1" stop-color="#FE66BA"/>
</linearGradient>
<linearGradient id="paint5_linear_1_20" x1="381.31" y1="96" x2="381.31" y2="143.932" gradientUnits="userSpaceOnUse">
<stop stop-color="#3C37FF"/>
<stop offset="1" stop-color="#FE66BA"/>
</linearGradient>
<linearGradient id="paint6_linear_1_20" x1="120.614" y1="95.7539" x2="120.614" y2="143.686" gradientUnits="userSpaceOnUse">
<stop stop-color="#3C37FF"/>
<stop offset="1" stop-color="#FE66BA"/>
</linearGradient>
<linearGradient id="paint7_linear_1_20" x1="284.966" y1="47.8223" x2="284.966" y2="95.7539" gradientUnits="userSpaceOnUse">
<stop stop-color="#3C37FF"/>
<stop offset="1" stop-color="#FE66BA"/>
</linearGradient>
<linearGradient id="paint8_linear_1_20" x1="284.896" y1="96" x2="284.896" y2="143.932" gradientUnits="userSpaceOnUse">
<stop stop-color="#3C37FF"/>
<stop offset="1" stop-color="#FE66BA"/>
</linearGradient>
<linearGradient id="paint9_linear_1_20" x1="120.724" y1="47.8223" x2="120.724" y2="95.7539" gradientUnits="userSpaceOnUse">
<stop stop-color="#3C37FF"/>
<stop offset="1" stop-color="#FE66BA"/>
</linearGradient>
<linearGradient id="paint10_linear_1_20" x1="23.9658" y1="0" x2="23.9658" y2="47.9316" gradientUnits="userSpaceOnUse">
<stop stop-color="#3C37FF"/>
<stop offset="1" stop-color="#FE66BA"/>
</linearGradient>
<linearGradient id="paint11_linear_1_20" x1="24.9658" y1="143.467" x2="24.9658" y2="191.398" gradientUnits="userSpaceOnUse">
<stop stop-color="#3C37FF"/>
<stop offset="1" stop-color="#FE66BA"/>
</linearGradient>
</defs>
</svg>
