<svg width="1440" height="760" viewBox="0 0 1440 760" fill="none" xmlns="http://www.w3.org/2000/svg">
<rect width="154.788" height="154.788" rx="40.357" transform="matrix(-4.37114e-08 -1 -1 4.37114e-08 224.789 509.788)" fill="url(#paint0_linear_455_20815)"/>
<rect x="1367.65" y="46.7876" width="154.788" height="154.788" rx="40.357" transform="rotate(-180 1367.65 46.7876)" fill="url(#paint1_linear_455_20815)"/>
<rect x="1522.35" y="200.303" width="154.788" height="154.788" rx="40.357" transform="rotate(-180 1522.35 200.303)" fill="url(#paint2_linear_455_20815)"/>
<rect x="1367.55" y="355" width="154.788" height="154.788" rx="40.357" fill="url(#paint3_linear_455_20815)"/>
<rect x="1368.13" y="200.301" width="154.788" height="154.788" rx="40.357" transform="rotate(90 1368.13 200.301)" fill="url(#paint4_linear_455_20815)"/>
<rect x="1213" y="509.877" width="154.788" height="154.788" rx="40.357" transform="rotate(-180 1213 509.877)" fill="url(#paint5_linear_455_20815)"/>
<rect x="379.789" y="818.788" width="154.788" height="154.788" rx="40.357" transform="rotate(180 379.789 818.788)" fill="url(#paint6_linear_455_20815)"/>
<rect x="692.789" y="818.788" width="154.788" height="154.788" rx="40.357" transform="rotate(180 692.789 818.788)" fill="url(#paint7_linear_455_20815)"/>
<rect x="1367.65" y="663.788" width="154.788" height="154.788" rx="40.357" transform="rotate(-180 1367.65 663.788)" fill="url(#paint8_linear_455_20815)"/>
<path d="M1327.18 355.087C1349.4 355.087 1367.43 373.134 1367.54 395.447C1367.66 373.14 1385.68 355.087 1407.9 355.087C1385.68 355.087 1367.66 337.04 1367.54 314.733C1367.43 337.04 1349.4 355.087 1327.18 355.087Z" fill="white"/>
<path d="M1173 509.354C1195.22 509.354 1213.24 527.402 1213.35 549.714C1213.47 527.407 1231.49 509.354 1253.71 509.354C1231.49 509.354 1213.47 491.307 1213.35 469C1213.24 491.307 1195.22 509.354 1173 509.354Z" fill="white"/>
<path d="M183.997 355.354C206.216 355.354 224.239 373.402 224.354 395.714C224.469 373.407 242.492 355.354 264.711 355.354C242.492 355.354 224.469 337.307 224.354 315C224.239 337.307 206.216 355.354 183.997 355.354Z" fill="white"/>
<rect x="70" y="509" width="154.788" height="154.788" rx="40.357" fill="url(#paint9_linear_455_20815)"/>
<rect width="154.788" height="154.788" rx="40.357" transform="matrix(-1 -8.74228e-08 -8.74228e-08 1 1058.79 -108)" fill="url(#paint10_linear_455_20815)"/>
<rect width="154.788" height="154.788" rx="40.357" transform="matrix(-1 0 0 1 1212.79 664)" fill="url(#paint11_linear_455_20815)"/>
<rect width="154.788" height="154.788" rx="40.357" transform="matrix(-1 0 0 1 224.789 46)" fill="url(#paint12_linear_455_20815)"/>
<rect width="154.788" height="154.788" rx="40.357" transform="matrix(-1 0 0 1 533.789 -108)" fill="url(#paint13_linear_455_20815)"/>
<rect width="154.788" height="154.788" rx="40.357" transform="matrix(1.19249e-08 -1 -1 -1.19249e-08 378.789 46.7876)" fill="url(#paint14_linear_455_20815)"/>
<rect width="154.788" height="154.788" rx="40.357" transform="matrix(-1 0 0 1 69.7891 201)" fill="url(#paint15_linear_455_20815)"/>
<rect width="154.788" height="154.788" rx="40.357" transform="matrix(1.19249e-08 -1 -1 -1.19249e-08 1367.79 818.788)" fill="url(#paint16_linear_455_20815)"/>
<rect width="154.788" height="154.788" rx="40.357" transform="matrix(4.37114e-08 1 1 -4.37114e-08 1058.22 46.0889)" fill="url(#paint17_linear_455_20815)"/>
<rect width="154.788" height="154.788" rx="40.357" transform="matrix(1 0 0 -1 224 355.788)" fill="url(#paint18_linear_455_20815)"/>
<path d="M1253.71 46.0859C1231.49 46.0859 1213.47 64.1331 1213.36 86.4458C1213.24 64.1389 1195.22 46.0859 1173 46.0859C1195.22 46.0859 1213.24 28.0387 1213.36 5.73183C1213.47 28.0387 1231.49 46.0859 1253.71 46.0859Z" fill="white"/>
<path d="M184.005 46.354C206.224 46.354 224.246 64.4012 224.362 86.7139C224.477 64.407 242.499 46.354 264.719 46.354C242.499 46.354 224.477 28.3068 224.362 5.9999C224.246 28.3068 206.224 46.354 184.005 46.354Z" fill="white"/>
<path d="M338.997 664.354C361.216 664.354 379.239 682.401 379.354 704.714C379.469 682.407 397.492 664.354 419.711 664.354C397.492 664.354 379.469 646.307 379.354 624C379.239 646.307 361.216 664.354 338.997 664.354Z" fill="white"/>
<defs>
<linearGradient id="paint0_linear_455_20815" x1="77.3939" y1="0" x2="77.3939" y2="154.788" gradientUnits="userSpaceOnUse">
<stop stop-color="#3C37FF"/>
<stop offset="1" stop-color="#FE66BA"/>
</linearGradient>
<linearGradient id="paint1_linear_455_20815" x1="1445.04" y1="46.7876" x2="1445.04" y2="201.575" gradientUnits="userSpaceOnUse">
<stop stop-color="#3C37FF"/>
<stop offset="1" stop-color="#FE66BA"/>
</linearGradient>
<linearGradient id="paint2_linear_455_20815" x1="1599.75" y1="200.303" x2="1599.75" y2="355.091" gradientUnits="userSpaceOnUse">
<stop stop-color="#3C37FF"/>
<stop offset="1" stop-color="#FE66BA"/>
</linearGradient>
<linearGradient id="paint3_linear_455_20815" x1="1444.95" y1="355" x2="1444.95" y2="509.788" gradientUnits="userSpaceOnUse">
<stop stop-color="#3C37FF"/>
<stop offset="1" stop-color="#FE66BA"/>
</linearGradient>
<linearGradient id="paint4_linear_455_20815" x1="1445.53" y1="200.301" x2="1445.53" y2="355.089" gradientUnits="userSpaceOnUse">
<stop stop-color="#3C37FF"/>
<stop offset="1" stop-color="#FE66BA"/>
</linearGradient>
<linearGradient id="paint5_linear_455_20815" x1="1290.39" y1="509.877" x2="1290.39" y2="664.665" gradientUnits="userSpaceOnUse">
<stop stop-color="#3C37FF"/>
<stop offset="1" stop-color="#FE66BA"/>
</linearGradient>
<linearGradient id="paint6_linear_455_20815" x1="457.183" y1="818.788" x2="457.183" y2="973.575" gradientUnits="userSpaceOnUse">
<stop stop-color="#3C37FF"/>
<stop offset="1" stop-color="#FE66BA"/>
</linearGradient>
<linearGradient id="paint7_linear_455_20815" x1="770.183" y1="818.788" x2="770.183" y2="973.575" gradientUnits="userSpaceOnUse">
<stop stop-color="#3C37FF"/>
<stop offset="1" stop-color="#FE66BA"/>
</linearGradient>
<linearGradient id="paint8_linear_455_20815" x1="1445.04" y1="663.788" x2="1445.04" y2="818.576" gradientUnits="userSpaceOnUse">
<stop stop-color="#3C37FF"/>
<stop offset="1" stop-color="#FE66BA"/>
</linearGradient>
<linearGradient id="paint9_linear_455_20815" x1="147.394" y1="509" x2="147.394" y2="663.788" gradientUnits="userSpaceOnUse">
<stop stop-color="#3C37FF"/>
<stop offset="1" stop-color="#FE66BA"/>
</linearGradient>
<linearGradient id="paint10_linear_455_20815" x1="77.3939" y1="0" x2="77.3939" y2="154.788" gradientUnits="userSpaceOnUse">
<stop stop-color="#3C37FF"/>
<stop offset="1" stop-color="#FE66BA"/>
</linearGradient>
<linearGradient id="paint11_linear_455_20815" x1="77.3939" y1="0" x2="77.3939" y2="154.788" gradientUnits="userSpaceOnUse">
<stop stop-color="#3C37FF"/>
<stop offset="1" stop-color="#FE66BA"/>
</linearGradient>
<linearGradient id="paint12_linear_455_20815" x1="77.3939" y1="0" x2="77.3939" y2="154.788" gradientUnits="userSpaceOnUse">
<stop stop-color="#3C37FF"/>
<stop offset="1" stop-color="#FE66BA"/>
</linearGradient>
<linearGradient id="paint13_linear_455_20815" x1="77.3939" y1="0" x2="77.3939" y2="154.788" gradientUnits="userSpaceOnUse">
<stop stop-color="#3C37FF"/>
<stop offset="1" stop-color="#FE66BA"/>
</linearGradient>
<linearGradient id="paint14_linear_455_20815" x1="77.3939" y1="0" x2="77.3939" y2="154.788" gradientUnits="userSpaceOnUse">
<stop stop-color="#3C37FF"/>
<stop offset="1" stop-color="#FE66BA"/>
</linearGradient>
<linearGradient id="paint15_linear_455_20815" x1="77.3939" y1="0" x2="77.3939" y2="154.788" gradientUnits="userSpaceOnUse">
<stop stop-color="#3C37FF"/>
<stop offset="1" stop-color="#FE66BA"/>
</linearGradient>
<linearGradient id="paint16_linear_455_20815" x1="77.3939" y1="0" x2="77.3939" y2="154.788" gradientUnits="userSpaceOnUse">
<stop stop-color="#3C37FF"/>
<stop offset="1" stop-color="#FE66BA"/>
</linearGradient>
<linearGradient id="paint17_linear_455_20815" x1="77.3939" y1="0" x2="77.3939" y2="154.788" gradientUnits="userSpaceOnUse">
<stop stop-color="#3C37FF"/>
<stop offset="1" stop-color="#FE66BA"/>
</linearGradient>
<linearGradient id="paint18_linear_455_20815" x1="77.3939" y1="0" x2="77.3939" y2="154.788" gradientUnits="userSpaceOnUse">
<stop stop-color="#3C37FF"/>
<stop offset="1" stop-color="#FE66BA"/>
</linearGradient>
</defs>
</svg>
