<svg width="24" height="24" viewBox="0 0 24 24" fill="none" xmlns="http://www.w3.org/2000/svg">
<rect width="24" height="24" rx="6" fill="#707070"/>
<path d="M5.66954 9.90626L11.6695 13.3729C11.7709 13.4314 11.8858 13.4622 12.0029 13.4622C12.1199 13.4622 12.2349 13.4314 12.3362 13.3729L18.3362 9.90626C18.437 9.84809 18.5207 9.76457 18.5792 9.66399C18.6377 9.56341 18.6688 9.44927 18.6695 9.33293C18.67 9.21546 18.6394 9.09995 18.5809 8.99809C18.5223 8.89624 18.4379 8.81167 18.3362 8.75293L12.3362 5.29293C12.2349 5.23442 12.1199 5.20361 12.0029 5.20361C11.8858 5.20361 11.7709 5.23442 11.6695 5.29293L5.66954 8.75293C5.5678 8.81167 5.48339 8.89624 5.42485 8.99809C5.36632 9.09995 5.33574 9.21546 5.3362 9.33293C5.3369 9.44927 5.36804 9.56341 5.42652 9.66399C5.485 9.76457 5.56878 9.84809 5.66954 9.90626ZM12.0029 6.66626L16.6695 9.33293L12.0029 11.9996L7.3362 9.33293L12.0029 6.66626ZM17.6695 11.4463L12.0029 14.6663L6.3362 11.4196C6.26011 11.3755 6.17605 11.3469 6.08887 11.3355C6.00168 11.324 5.91309 11.3299 5.8282 11.3528C5.74331 11.3758 5.66379 11.4153 5.59422 11.4691C5.52466 11.5229 5.46642 11.5899 5.42287 11.6663C5.33595 11.8193 5.31311 12.0006 5.35932 12.1704C5.40553 12.3403 5.51705 12.485 5.66954 12.5729L11.6695 16.0396C11.7709 16.0981 11.8858 16.1289 12.0029 16.1289C12.1199 16.1289 12.2349 16.0981 12.3362 16.0396L18.3362 12.5729C18.4887 12.485 18.6002 12.3403 18.6464 12.1704C18.6926 12.0006 18.6698 11.8193 18.5829 11.6663C18.5393 11.5899 18.4811 11.5229 18.4115 11.4691C18.342 11.4153 18.2624 11.3758 18.1775 11.3528C18.0926 11.3299 18.0041 11.324 17.9169 11.3355C17.8297 11.3469 17.7456 11.3755 17.6695 11.4196V11.4463ZM17.6695 14.1129L12.0029 17.3329L6.3362 14.0863C6.26011 14.0422 6.17605 14.0136 6.08887 14.0021C6.00168 13.9907 5.91309 13.9966 5.8282 14.0195C5.74331 14.0424 5.66379 14.0819 5.59422 14.1357C5.52466 14.1895 5.46642 14.2565 5.42287 14.3329C5.33595 14.486 5.31311 14.6672 5.35932 14.8371C5.40553 15.007 5.51705 15.1517 5.66954 15.2396L11.6695 18.7063C11.7709 18.7648 11.8858 18.7956 12.0029 18.7956C12.1199 18.7956 12.2349 18.7648 12.3362 18.7063L18.3362 15.2396C18.4887 15.1517 18.6002 15.007 18.6464 14.8371C18.6926 14.6672 18.6698 14.486 18.5829 14.3329C18.5393 14.2565 18.4811 14.1895 18.4115 14.1357C18.342 14.0819 18.2624 14.0424 18.1775 14.0195C18.0926 13.9966 18.0041 13.9907 17.9169 14.0021C17.8297 14.0136 17.7456 14.0422 17.6695 14.0863V14.1129Z" fill="white"/>
</svg>
