<svg width="14" height="14" viewBox="0 0 14 14" fill="none" xmlns="http://www.w3.org/2000/svg">
<path d="M9.06537 1.33337C8.98678 1.49163 8.97423 1.67462 9.03048 1.84213C9.08673 2.00964 9.20719 2.14796 9.36537 2.2267C10.2175 2.64866 10.9413 3.29077 11.4619 4.08652C11.9824 4.88226 12.2808 5.80271 12.326 6.75252C12.3712 7.70234 12.1617 8.64697 11.7191 9.48857C11.2765 10.3302 10.617 11.0382 9.80876 11.5392C9.00057 12.0402 8.07312 12.316 7.12249 12.3381C6.17186 12.3601 5.23262 12.1277 4.40204 11.6647C3.57147 11.2017 2.87977 10.5251 2.3986 9.70497C1.91743 8.88481 1.66428 7.95092 1.66537 7.00004C1.66107 6.00596 1.93713 5.03081 2.46187 4.1865C2.98662 3.34219 3.73878 2.66294 4.63204 2.2267C4.79117 2.14714 4.91217 2.00762 4.96843 1.83884C5.02469 1.67005 5.0116 1.48583 4.93204 1.3267C4.85247 1.16757 4.71295 1.04657 4.54417 0.990308C4.37539 0.934047 4.19117 0.94714 4.03204 1.0267C2.68587 1.69563 1.60528 2.79988 0.965656 4.16022C0.326036 5.52056 0.16493 7.05714 0.508488 8.52057C0.852045 9.98399 1.6801 11.2884 2.85825 12.222C4.0364 13.1555 5.49549 13.6636 6.9987 13.6636C8.50191 13.6636 9.96101 13.1555 11.1392 12.222C12.3173 11.2884 13.1454 9.98399 13.4889 8.52057C13.8325 7.05714 13.6714 5.52056 13.0318 4.16022C12.3921 2.79988 11.3115 1.69563 9.96537 1.0267C9.88628 0.986976 9.80008 0.963392 9.71178 0.957329C9.62348 0.951266 9.53486 0.962843 9.45109 0.991389C9.36732 1.01994 9.29006 1.06488 9.22384 1.12359C9.15762 1.1823 9.10374 1.25362 9.06537 1.33337ZM6.33204 1.00004L6.33204 7.39337L4.80537 5.86004C4.74321 5.79788 4.66942 5.74857 4.5882 5.71493C4.50699 5.68129 4.41994 5.66398 4.33204 5.66398C4.24413 5.66398 4.15709 5.68129 4.07587 5.71493C3.99466 5.74857 3.92086 5.79788 3.8587 5.86004C3.79654 5.9222 3.74724 5.99599 3.7136 6.0772C3.67996 6.15842 3.66264 6.24546 3.66264 6.33337C3.66264 6.42128 3.67996 6.50832 3.7136 6.58954C3.74724 6.67075 3.79654 6.74454 3.8587 6.8067L6.52537 9.47337C6.58877 9.53406 6.66354 9.58164 6.74537 9.61337C6.90768 9.68005 7.08973 9.68005 7.25204 9.61337C7.33387 9.58164 7.40863 9.53406 7.47204 9.47337L10.1387 6.8067C10.2012 6.74473 10.2508 6.67099 10.2846 6.58975C10.3185 6.50852 10.3359 6.42138 10.3359 6.33337C10.3359 6.24536 10.3185 6.15823 10.2846 6.07699C10.2508 5.99575 10.2012 5.92201 10.1387 5.86004C10.0767 5.79755 10.003 5.74796 9.92175 5.71411C9.84052 5.68026 9.75338 5.66284 9.66537 5.66284C9.57736 5.66284 9.49023 5.68026 9.40899 5.71411C9.32775 5.74796 9.25401 5.79755 9.19204 5.86004L7.66537 7.39337L7.66537 1.00004C7.66537 0.823227 7.59513 0.653657 7.47011 0.528632C7.34508 0.403608 7.17551 0.333371 6.9987 0.333371C6.82189 0.333371 6.65232 0.403608 6.5273 0.528632C6.40227 0.653657 6.33204 0.823227 6.33204 1.00004Z" fill="black"/>
</svg>
